<svg width="24" height="12" viewBox="0 0 24 12" fill="none" xmlns="http://www.w3.org/2000/svg">
<path d="M23.7998 7.15419C23.7678 7.14036 23.7336 7.13224 23.6988 7.13019C23.6284 7.12846 23.5588 7.145 23.4968 7.17819C23.4368 7.20619 23.4048 7.25819 23.3698 7.31419C23.2828 7.44219 23.2198 7.58219 23.1438 7.71419C23.0368 7.90119 22.8978 8.06519 22.7638 8.22919C22.6288 8.38519 22.4778 8.52019 22.3398 8.66919C22.3118 8.69619 22.2678 8.71219 22.2328 8.69619C22.2048 8.68019 22.1968 8.64019 22.2008 8.60819C22.2408 8.22819 22.2758 7.84519 22.3238 7.47019C22.3438 7.29819 22.3668 7.13419 22.3868 6.95819C22.4148 6.71119 22.4428 6.47119 22.4738 6.22319L22.7078 4.39919C22.7278 4.27119 22.7398 4.02719 22.5728 3.87919C22.5084 3.81822 22.4272 3.77783 22.3398 3.76319C22.2511 3.75825 22.1629 3.77909 22.0858 3.82319C21.8598 3.98319 21.7888 4.32719 21.7208 4.58319C21.5788 5.18619 21.5428 5.82419 21.2498 6.38719C21.1938 6.49937 21.1261 6.6053 21.0478 6.70319C20.9981 6.77474 20.9349 6.83589 20.8618 6.88319C20.7896 6.93176 20.7013 6.95007 20.6158 6.93419C20.5631 6.91968 20.5145 6.89355 20.4733 6.85773C20.4321 6.8219 20.3994 6.77729 20.3778 6.72719C20.3363 6.62419 20.3149 6.51422 20.3148 6.40319C20.2992 5.86475 20.3805 5.3279 20.5548 4.81819C20.5998 4.68619 20.6438 4.56619 20.6588 4.43519C20.6868 4.27919 20.6868 4.05519 20.5448 3.91919C20.4138 3.79119 20.2078 3.73919 20.0408 3.79119C19.8468 3.84719 19.7308 4.03519 19.6688 4.18319C19.4708 4.64619 19.4188 5.13319 19.3518 5.62919C19.3078 5.95619 19.2248 6.26919 19.0588 6.55519C18.9011 6.82837 18.697 7.07201 18.4558 7.27519C18.3378 7.36219 18.2338 7.39819 18.1278 7.38219C18.0681 7.37242 18.0117 7.34841 17.9633 7.3122C17.9149 7.27599 17.876 7.22865 17.8498 7.17419C17.7985 7.07614 17.7662 6.96925 17.7548 6.85919C17.7239 6.6554 17.7118 6.44919 17.7188 6.24319C17.7228 6.02019 17.7188 5.80319 17.7628 5.58519C17.8378 5.19519 18.4408 3.64819 18.5708 3.24019C18.7058 2.83319 18.8328 2.41719 18.9238 1.99419C19.0038 1.61419 19.0468 1.22719 19.0338 0.844189C19.0268 0.567189 18.9638 0.268189 18.7458 0.108189C18.6581 0.048625 18.5564 0.0128768 18.4506 0.00446062C18.3449 -0.00395554 18.2388 0.0152505 18.1428 0.0601895C17.948 0.148655 17.788 0.299162 17.6878 0.488189C17.5881 0.67464 17.5122 0.872852 17.4618 1.07819C17.3496 1.503 17.2608 1.93365 17.1958 2.36819C17.1248 2.79719 17.0578 3.21619 16.9898 3.63619C16.9298 3.99119 16.7838 5.25019 16.7288 5.51619C16.6688 5.78819 16.5538 6.05619 16.4278 6.30319C16.2968 6.57119 16.1698 6.83919 16.0198 7.09419C15.9775 7.18013 15.9179 7.2564 15.8448 7.31819C15.7648 7.37819 15.6628 7.40619 15.5748 7.36619C15.4728 7.31819 15.4288 7.19019 15.4088 7.07419C15.3338 6.63919 15.3968 6.19919 15.4808 5.77219C15.5638 5.34119 15.9208 3.37219 15.9998 2.92119C16.0988 2.38919 16.2398 1.87119 16.2848 1.33119C16.3128 0.943189 16.3748 0.45119 16.0828 0.14419C15.9678 0.00818963 15.7728 -0.0158105 15.6428 0.00818948C15.4688 0.0441895 15.3328 0.184189 15.2548 0.304189C15.1548 0.432189 15.0688 0.58419 14.9968 0.77119C14.8818 1.05519 14.8108 1.38619 14.7358 1.68119L14.7038 1.81019C14.6208 2.19319 14.5608 2.58019 14.5178 2.97219C14.4938 3.18246 14.4738 3.39317 14.4578 3.60419C14.4498 3.70419 14.4418 3.80719 14.4308 3.91119C14.4308 3.99119 14.4378 4.07919 14.4028 4.15519C14.3887 4.1802 14.3712 4.20309 14.3508 4.22319C14.2708 4.29519 14.1488 4.28319 14.0408 4.27919C13.4838 4.26319 12.9958 4.57919 12.6908 5.03419C12.5108 5.28619 12.4098 5.57619 12.3008 5.86819C12.2908 5.91619 12.2668 5.96819 12.2468 6.02019C12.1958 6.16319 12.1168 6.34719 12.0248 6.53119C11.9335 6.69394 11.8274 6.84792 11.7078 6.99119C11.5917 7.13857 11.4632 7.27574 11.3238 7.40119C11.1777 7.53122 11.0002 7.62085 10.8088 7.66119C10.6348 7.70119 10.4248 7.61819 10.2658 7.45819C10.1406 7.30514 10.0684 7.1157 10.0598 6.91819C10.0558 6.86319 10.0558 6.80319 10.0878 6.75519C10.1378 6.68719 10.2338 6.68319 10.3178 6.67919C10.6187 6.65464 10.9068 6.54664 11.1497 6.36733C11.3926 6.18803 11.5807 5.94452 11.6928 5.66419C11.8308 5.32419 11.8708 4.96619 11.8148 4.61819C11.7872 4.44624 11.7224 4.2824 11.6248 4.13819C11.5268 3.99452 11.3892 3.88233 11.2288 3.81519C10.9358 3.67519 10.5708 3.68819 10.2188 3.81919C9.64378 4.05119 9.26778 4.55919 9.08478 5.38119L9.06478 5.46919C8.95078 5.95619 8.83478 6.46919 8.48278 6.82319C8.35578 6.94319 8.22178 6.98619 8.11478 6.96619C8.07078 6.96219 8.03478 6.92619 8.01178 6.89119C7.91578 6.73119 8.01478 6.35919 8.16178 5.89119C8.20074 5.7708 8.23411 5.64867 8.26178 5.52519C8.27255 5.35335 8.23514 5.18192 8.15378 5.03019C8.06793 4.88493 7.93745 4.77129 7.78178 4.70619C7.63878 4.64219 7.47178 4.64619 7.31378 4.64619H7.26678C7.22278 4.64619 7.16378 4.64619 7.11578 4.63419C7.08303 4.62604 7.05265 4.6103 7.02711 4.58824C7.00158 4.56618 6.98159 4.53841 6.96878 4.50719C6.95522 4.4297 6.96071 4.35008 6.98478 4.27519C6.98878 4.25519 6.99678 4.22719 7.00078 4.20319C7.02213 4.12624 7.01788 4.04443 6.98866 3.9701C6.95943 3.89578 6.90683 3.83299 6.83878 3.79119C6.76938 3.74807 6.69063 3.72229 6.60917 3.71602C6.52772 3.70976 6.44595 3.72319 6.37078 3.75519C6.21378 3.82698 6.08555 3.94958 6.00678 4.10319C5.92092 4.24764 5.88474 4.41623 5.90378 4.58319C5.94378 4.71319 5.97378 4.90319 5.94678 5.05819C5.89178 5.33819 5.72478 5.56819 5.56278 5.79819C5.52278 5.84819 5.49078 5.90419 5.45578 5.95819C5.25134 6.2582 5.01459 6.53486 4.74978 6.78319C4.37778 7.11819 3.94578 7.35819 3.51778 7.45319C2.77278 7.61819 2.01178 7.39319 1.60778 6.71919C1.38578 6.33919 1.28778 5.89219 1.25978 5.45319C1.19907 4.59274 1.34443 3.73022 1.68378 2.93719C2.01178 2.17719 2.49978 1.41719 3.39878 1.32319C3.75178 1.28319 4.15178 1.40619 4.31078 1.72319C4.42578 1.95319 4.38578 2.22919 4.31078 2.47319C4.23878 2.71719 4.13578 2.96319 4.13078 3.22319C4.12778 3.48319 4.25478 3.76319 4.50078 3.83919C4.73878 3.91119 4.99578 3.75919 5.13478 3.54919C5.27278 3.33919 5.32078 3.08919 5.37978 2.84519C5.52251 2.27211 5.74537 1.72203 6.04178 1.21119C6.18078 0.97519 6.33878 0.72319 6.29578 0.45119C6.27697 0.354739 6.23235 0.265198 6.16666 0.192113C6.10097 0.119028 6.01668 0.0651385 5.92278 0.0361894C5.82889 0.00995655 5.72966 0.00948425 5.63553 0.0348218C5.54139 0.0601593 5.45581 0.110372 5.38778 0.180189C5.25378 0.328189 5.18178 0.55119 5.00078 0.61019C4.83078 0.67019 4.65078 0.555189 4.49378 0.476189C3.89378 0.156189 3.15778 0.16419 2.53078 0.42819C1.89678 0.67819 1.38478 1.16319 1.00478 1.72219C0.461776 2.53019 0.0977758 3.50819 0.0217758 4.48019C-0.0052242 4.82019 -0.0092242 5.17519 0.0217758 5.51819C0.0577758 5.97819 0.121776 6.37219 0.235776 6.72419C0.374776 7.14719 0.552776 7.51419 0.782776 7.81819C1.04878 8.15819 1.36978 8.41819 1.72278 8.56519C2.09478 8.71319 2.50678 8.78519 2.91478 8.77319C3.32164 8.75529 3.72125 8.65921 4.09178 8.49019C4.46468 8.31402 4.81024 8.085 5.11778 7.81019C5.42678 7.55019 5.71178 7.25119 5.95778 6.92019C6.11978 6.69619 6.26678 6.46019 6.39778 6.21219C6.46266 6.08718 6.52206 5.95939 6.57578 5.82919C6.61978 5.72519 6.66278 5.61419 6.77778 5.56919C6.83378 5.52619 6.92778 5.54919 6.97978 5.58219C7.04378 5.62219 7.09478 5.65719 7.11478 5.71719C7.16278 5.83319 7.13478 5.94919 7.11078 6.04919V6.06119C7.08278 6.16119 7.05578 6.26419 7.01978 6.36419C6.87978 6.78819 6.78178 7.17519 6.85978 7.55919C6.90478 7.76619 6.98778 7.94619 7.10978 8.08619C7.24195 8.23014 7.42018 8.3235 7.61378 8.35019C7.85978 8.39019 8.12378 8.32219 8.33878 8.21819C8.48178 8.15019 8.61678 8.06219 8.73578 7.95819C8.79578 7.89819 8.85778 7.83819 8.90978 7.77419C8.95378 7.71419 8.99678 7.62719 9.08778 7.63119C9.10916 7.63356 9.12978 7.6405 9.14824 7.65155C9.1667 7.66259 9.18257 7.67747 9.19478 7.69519C9.22278 7.72619 9.23478 7.76619 9.25478 7.81019C9.48478 8.33019 10.0308 8.65019 10.5898 8.65019H10.6598C10.9298 8.65019 11.2158 8.55719 11.4498 8.43019C11.7198 8.29019 11.9298 8.08219 12.1498 7.87819C12.1698 7.86219 12.1948 7.83819 12.2228 7.83419C12.2578 7.82619 12.2928 7.84619 12.3218 7.87819C12.3444 7.90777 12.3605 7.94187 12.3688 7.97819C12.5038 8.31819 12.8288 8.57819 13.1928 8.63819C13.3744 8.66627 13.5602 8.64841 13.7331 8.58622C13.906 8.52403 14.0606 8.41951 14.1828 8.28219C14.2388 8.22219 14.2868 8.15419 14.3498 8.10619C14.4138 8.06219 14.4998 8.03019 14.5718 8.06219C14.6788 8.10219 14.7068 8.22619 14.7538 8.33019C14.8608 8.56519 15.1108 8.70119 15.3688 8.70519C15.6578 8.70519 15.9228 8.55719 16.1328 8.36519C16.3278 8.18219 16.4858 7.96619 16.6488 7.75519C16.6766 7.71578 16.7128 7.683 16.7548 7.65919C16.7948 7.63519 16.8508 7.63119 16.8848 7.65919C16.9178 7.68319 16.9298 7.71919 16.9448 7.75019C17.1078 8.15019 17.5318 8.40219 17.9548 8.39819C18.3718 8.39419 18.7638 8.17419 19.0578 7.88219C19.1528 7.79019 19.2518 7.68219 19.3778 7.67219C19.5178 7.65519 19.5848 7.78619 19.6318 7.89219C19.7038 8.03419 19.7468 8.13019 19.8818 8.23019C20.0398 8.34619 20.2418 8.38219 20.4288 8.33019C20.5988 8.29019 20.7688 8.17419 20.8988 8.01419C20.9708 7.92619 21.0108 7.81019 21.0888 7.73019C21.1808 7.64319 21.2208 7.75819 21.2248 7.83019C21.2408 7.94619 21.2408 8.06619 21.2328 8.18219C21.2168 8.41819 21.1808 8.65319 21.1528 8.88519C21.1418 8.95319 21.1328 9.02119 21.0898 9.07319C21.0298 9.14119 20.9238 9.15319 20.8368 9.13719C20.7304 9.12191 20.6232 9.11256 20.5158 9.10919L20.3758 9.09319C20.1748 9.08119 19.9758 9.05719 19.7658 9.04919H19.5808C19.1768 9.04919 18.8478 9.09719 18.5508 9.20919C18.0708 9.39619 17.6988 9.77919 17.5478 10.2272C17.4774 10.4329 17.4595 10.6529 17.4958 10.8672C17.5358 11.0702 17.6258 11.2702 17.7778 11.4542C18.0428 11.7692 18.4578 11.9692 18.9268 11.9972C19.3348 12.0172 19.7788 11.9332 20.2188 11.7372C21.0668 11.3702 21.7008 10.6432 21.9148 9.78719C21.9148 9.76719 21.9248 9.74819 21.9378 9.74419C22.2358 9.64019 22.5078 9.49619 22.7508 9.31619C22.9958 9.12919 23.2178 8.91719 23.4008 8.67319C23.4908 8.55319 23.5748 8.43019 23.6538 8.30319C23.7238 8.17819 23.7838 8.04619 23.8558 7.92319C23.9188 7.82706 23.9629 7.71982 23.9858 7.60719C24.0007 7.55205 24.004 7.4944 23.9953 7.43792C23.9867 7.38145 23.9664 7.32739 23.9358 7.27919C23.9075 7.22267 23.8595 7.17852 23.8008 7.15519M10.1208 5.52519C10.1378 5.45419 10.1658 5.38519 10.1808 5.31919C10.2424 5.13901 10.3307 4.96911 10.4428 4.81519C10.4828 4.76719 10.5228 4.71519 10.5778 4.67919C10.604 4.65912 10.6339 4.64453 10.6659 4.63628C10.6979 4.62804 10.7311 4.62631 10.7638 4.63119C10.8708 4.65119 10.9468 4.75919 10.9658 4.86719C10.9978 5.04719 10.9258 5.26319 10.8518 5.42219C10.7831 5.58329 10.6768 5.72559 10.5418 5.83719C10.4818 5.88119 10.4278 5.92519 10.3638 5.95319C10.3358 5.96119 10.3008 5.98119 10.2488 5.98119H10.2328C10.1778 5.98119 10.1188 5.95319 10.1068 5.89319C10.0842 5.77128 10.0893 5.64585 10.1218 5.52619M14.4298 5.34219C14.4258 5.41419 14.4058 5.49019 14.4018 5.56519C14.3811 5.82445 14.3811 6.08493 14.4018 6.34419C14.4138 6.49619 14.4488 6.64419 14.3858 6.78819C14.3408 6.92869 14.2671 7.05836 14.1696 7.16902C14.072 7.27968 13.9525 7.36894 13.8188 7.43119C13.7425 7.46834 13.6587 7.4875 13.5738 7.48719C13.5538 7.48719 13.5338 7.48319 13.5138 7.48319C13.3938 7.48319 13.2998 7.39119 13.2488 7.30319C13.2005 7.21874 13.1667 7.1268 13.1488 7.03119C13.0718 6.65749 13.0967 6.26998 13.2208 5.90919C13.3008 5.68919 13.4228 5.47419 13.6008 5.31519C13.7534 5.16995 13.9533 5.08472 14.1638 5.07519C14.2379 5.07117 14.311 5.09388 14.3698 5.13919C14.4098 5.18319 14.4298 5.24319 14.4258 5.30319C14.4292 5.30922 14.4313 5.31588 14.432 5.32277C14.4327 5.32966 14.4319 5.33661 14.4298 5.34319M20.8598 9.99619C20.8448 10.0402 20.7998 10.1002 20.7798 10.1362C20.7378 10.2162 20.6778 10.2992 20.6188 10.3712C20.522 10.4814 20.4159 10.5831 20.3018 10.6752C20.0638 10.8552 19.7988 10.9862 19.5248 11.0622C19.366 11.1059 19.2024 11.1301 19.0378 11.1342H18.9978C18.8102 11.1368 18.6278 11.0731 18.4828 10.9542C18.4024 10.892 18.3465 10.8035 18.3248 10.7042C18.3103 10.6001 18.3266 10.4941 18.3718 10.3992C18.4486 10.2302 18.5834 10.0943 18.7518 10.0162C19.0778 9.85619 19.4338 9.84019 19.7708 9.85619C19.9098 9.86019 20.0358 9.86819 20.1708 9.87619C20.2778 9.88019 20.3888 9.88819 20.4958 9.90019C20.5518 9.90019 20.6108 9.90419 20.6658 9.91219C20.7098 9.91619 20.7578 9.90819 20.8008 9.92019C20.8608 9.92419 20.8678 9.95619 20.8598 9.99619Z" fill="white"/>
</svg>
